<svg width="580" height="100" viewBox="0 0 580 100" fill="none" xmlns="http://www.w3.org/2000/svg">
 <rect x="120" width="100" height="40" rx="2" fill="#3b82f6" />
 <path d="M150 39H190V98C190 99.1046 189.105 100 188 100H152C150.895 100 150 99.1046 150 98V39Z" fill="#3b82f6" />
 <path d="M279 30H338C339.105 30 340 30.8954 340 32V68C340 69.1046 339.105 70 338 70H279V30Z" fill="#3b82f6" />
 <rect x="240" width="40" height="100" rx="2" fill="#3b82f6" />
 <rect x="360" width="40" height="70" rx="2" fill="#3b82f6" />
 <rect x="420" width="40" height="100" rx="2" fill="#3b82f6" />
 <rect x="540" width="30" height="100" rx="2" fill="#3b82f6" />
 <path
  d="M480 12C480 10.8954 480.895 10 482 10H578C579.105 10 580 10.8954 580 12V38C580 39.1046 579.105 40 578 40H482C480.895 40 480 39.1046 480 38V12Z"
  fill="#3b82f6" />
 <path
  d="M528.87 30.4142C529.651 29.6332 530.917 29.6332 531.698 30.4142L550.083 48.799C550.864 49.58 550.864 50.8464 550.083 51.6274L503.414 98.2965C502.633 99.0775 501.367 99.0775 500.586 98.2965L482.201 79.9117C481.42 79.1306 481.42 77.8643 482.201 77.0833L528.87 30.4142Z"
  fill="#3b82f6" />
 <rect width="100" height="30" rx="2" fill="#3b82f6" />
 <rect y="70" width="100" height="30" rx="2" fill="#3b82f6" />
 <rect x="30" y="28" width="40" height="43" fill="#3b82f6" />
</svg>