<svg width="1000" height="200" viewBox="0 0 1000 200" fill="none" xmlns="http://www.w3.org/2000/svg">
 <path d="M100 0.00012207H200V49.0001H100V0.00012207Z" fill="#3b82f6" />
 <path d="M100 39.0001H199V100H100V39.0001Z" fill="#3b82f6" />
 <path d="M239 1.00012H300V100H239V1.00012Z" fill="#3b82f6" />
 <path d="M200 0.00012207H240V100H200V0.00012207Z" fill="#3b82f6" />
 <path d="M300 0.00012207H350V99.0001H300V0.00012207Z" fill="#3b82f6" />
 <path d="M351 0.00012207H400V100H351V0.00012207Z" fill="#3b82f6" />
 <path d="M400 0.00012207H500V100H400V0.00012207Z" fill="#3b82f6" />
 <path d="M400 98L402 100L400 100V98Z" fill="white" />
 <path d="M460 99L459 100H460V99Z" fill="white" />
 <path d="M0 0.00012207H100V49.5001H0V0.00012207Z" fill="#3b82f6" />
 <path d="M0 50.5H100V100H0V50.5Z" fill="#3b82f6" />
 <path d="M30 28.0001H70V71.0001H30V28.0001Z" fill="#3b82f6" />
 <path d="M600 100H700V149H600V100Z" fill="#3b82f6" />
 <path d="M600 139H699V200H600V139Z" fill="#3b82f6" />
 <path d="M739 101H800V200H739V101Z" fill="#3b82f6" />
 <path d="M700 100H740V200H700V100Z" fill="#3b82f6" />
 <path d="M800 100H850V199H800V100Z" fill="#3b82f6" />
 <path d="M851 100H900V200H851V100Z" fill="#3b82f6" />
 <path d="M900 100H1000V200H900V100Z" fill="#3b82f6" />
 <path d="M900 198L902 200L900 200V198Z" fill="white" />
 <path d="M960 199L959 200H960V199Z" fill="white" />
 <path d="M500 100H600V149.5H500V100Z" fill="#3b82f6" />
 <path d="M500 150.5H600V200H500V150.5Z" fill="#3b82f6" />
 <path d="M530 128H570V171H530V128Z" fill="#3b82f6" />
 <path d="M900 100L800 100V51L900 51V100Z" fill="#3b82f6" />
 <path d="M900 61L801 61V0L900 0V61Z" fill="#3b82f6" />
 <path d="M761 99L700 99V0L761 0V99Z" fill="#3b82f6" />
 <path d="M800 100H760V0H800V100Z" fill="#3b82f6" />
 <path d="M700 100H650V1H700V100Z" fill="#3b82f6" />
 <path d="M649 100H600V0H649V100Z" fill="#3b82f6" />
 <path d="M600 100L500 100V0L600 0V100Z" fill="#3b82f6" />
 <path d="M600 2.00012L598 0.000121966L600 0.000126035V2.00012Z" fill="white" />
 <path d="M540 1.00012L541 0.000122019L540 0.000122019V1.00012Z" fill="white" />
 <path d="M1000 100L900 100V50.5L1000 50.5V100Z" fill="#3b82f6" />
 <path d="M1000 49.5001L900 49.5001V0.00012207L1000 0.00012207V49.5001Z" fill="#3b82f6" />
 <path d="M970 72H930V29L970 29V72Z" fill="#3b82f6" />
 <path d="M400 200H300V151H400V200Z" fill="#3b82f6" />
 <path d="M400 161H301V100L400 100V161Z" fill="#3b82f6" />
 <path d="M261 199H200V100L261 100V199Z" fill="#3b82f6" />
 <path d="M300 200H260V100H300V200Z" fill="#3b82f6" />
 <path d="M200 200H150V101H200V200Z" fill="#3b82f6" />
 <path d="M149 200H100L100 100H149V200Z" fill="#3b82f6" />
 <path d="M100 200H-1.52588e-05L-1.52588e-05 100L100 100L100 200Z" fill="#3b82f6" />
 <path d="M100 102L98.0001 100L100 100V102Z" fill="white" />
 <path d="M40.0001 101L41.0001 100H40.0001V101Z" fill="white" />
 <path d="M500 200H400V150.5H500V200Z" fill="#3b82f6" />
 <path d="M500 149.5H400V100L500 100V149.5Z" fill="#3b82f6" />
 <path d="M470 172H430V129H470V172Z" fill="#3b82f6" />
</svg>